<svg height="1024" viewBox="0 0 1024 1024" width="1024" xmlns="http://www.w3.org/2000/svg"><path d="m0 512.001v512.001l512.25-.251 512.25-.251.251-511.75.251-511.75h-512.501-512.501zm.496.499c0 281.6.114 396.651.254 255.668.14-140.982.14-371.382 0-512-.14-140.617-.254-25.268-.254 256.332m750.474-407.171c-.292.31-141.142.668-313 .794l-312.47.229-6.5 2.53c-3.575 1.391-7.625 3.276-9 4.187-1.375.912-4.553 2.557-7.063 3.656-3.055 1.337-5.752 3.612-8.163 6.886-1.981 2.689-6.084 7.026-9.12 9.638-5.604 4.823-13.345 16.351-18.077 26.92-4.627 10.336-4.759 14.681-4.142 136.331.867 171.14.863 175.029-.244 202.5-.584 14.496-1.051 93.429-1.082 182.908-.061 178.012-.397 169.49 7.211 182.903 2.281 4.021 8.758 13.078 14.392 20.126 8.659 10.832 11.671 13.801 19.46 19.189 5.068 3.506 9.786 6.724 10.483 7.152.698.429 5.899 1.624 11.557 2.656 9.94 1.814 23.138 1.881 390.288 1.982 317.521.087 380.934-.119 385.678-1.258 6.375-1.529 26.228-13.922 33.666-21.016 10.514-10.026 21.87-29.003 24.166-40.384 1.004-4.975 1.159-75.606.761-348.022l-.499-341.781-3.136-7.145c-1.725-3.93-3.136-7.644-3.136-8.254s-5.062-6.212-11.25-12.45c-11.847-11.942-23.487-20.857-34.584-26.488l-6.666-3.383-74.5-.485c-40.975-.267-74.739-.232-75.03.079m-353.276 43.203-2.806 2.468h-143.909c-139.975 0-143.936.052-144.918 1.886-.673 1.258-1.015 120.481-1.027 358.288-.017 320.235.138 356.627 1.53 358.614l1.549 2.212h400.253c344.074 0 400.524-.199 402.193-1.419 1.905-1.393 1.946-4.321 2.224-157.469l.283-156.05 2.467-6.554 2.467-6.554v-196.754c0-176.46-.161-196.984-1.557-198.977l-1.556-2.223h-48.702-48.701l-4.696 2.5-4.696 2.5h-68.872-68.871l-2.349-2.5-2.349-2.5-132.575.032-132.576.031zm83.306 101.492c-10.884.456-18.372 1.268-22 2.385-4.574 1.408-9.13 1.652-27.062 1.444-20.645-.238-21.711-.156-25.093 1.934-2.763 1.707-5.797 2.33-13.938 2.86-8.028.522-11.017 1.126-13.075 2.643-1.871 1.378-4.86 2.109-10 2.447-5.246.344-8.521 1.162-11.51 2.872-2.298 1.315-5.473 2.391-7.056 2.391-1.582 0-4.402 1.125-6.266 2.5s-4.425 2.5-5.691 2.5c-1.267 0-3.992 1.484-6.056 3.298s-6.73 5.629-10.368 8.479c-7.496 5.871-10.234 9.165-14.729 17.723-3.04 5.787-3.152 6.438-3.154 18.316-.001 6.773-.445 13.144-.987 14.156-.864 1.614-7.526 5.288-19.015 10.486-11.706 5.296-25.64 16.838-34.372 28.469-8.496 11.317-12.588 17.924-12.611 20.363-.009.984-.948 3.615-2.086 5.845-1.819 3.566-2.09 6.063-2.25 20.71-.176 16.222-.108 16.824 2.619 23.155 1.54 3.575 3.237 7.175 3.77 8 .534.825 1.653 3.075 2.487 5 1.672 3.858 2.781 6.112 5.054 10.266.833 1.521 1.261 3.546.952 4.5s-5.361 6.684-11.228 12.734c-7.988 8.237-11.629 12.879-14.501 18.481-2.109 4.115-3.834 8.215-3.834 9.113 0 .897-1.35 3.33-3 5.406s-3 4.886-3 6.243c0 1.358-1.125 3.805-2.5 5.439-1.79 2.128-2.501 4.156-2.504 7.145-.002 2.615-.842 5.48-2.25 7.673-2.169 3.379-2.246 4.328-2.246 27.523 0 23.399.059 24.098 2.25 26.885 1.237 1.574 2.25 4.09 2.25 5.592s.938 3.923 2.085 5.381 2.52 4.225 3.051 6.149c.666 2.414 4.641 7.301 12.83 15.772 13.683 14.155 14.374 15.711 11.223 25.256-1.272 3.853-2.2 10.345-2.639 18.466-.635 11.731-.516 13.02 1.886 20.377 1.41 4.32 2.568 8.809 2.573 9.977.005 1.167 1.116 4.372 2.469 7.122s2.474 6.6 2.491 8.556c.019 2.183.996 4.863 2.531 6.944 1.375 1.864 2.5 3.937 2.5 4.607s2.187 3.845 4.859 7.056c2.672 3.21 5.606 7.295 6.52 9.076.914 1.782 3.565 5.462 5.891 8.179 2.327 2.717 4.905 5.889 5.73 7.05.874 1.23 3.734 2.694 6.856 3.509 2.946.769 7.02 2.551 9.054 3.96 2.034 1.41 4.745 2.563 6.026 2.563 1.28 0 3.855.944 5.721 2.097 2.103 1.299 5.761 2.283 9.618 2.585 3.424.269 9.009 1.448 12.413 2.622l6.187 2.133 7.542-2.218c4.826-1.42 10.228-2.219 15.006-2.219 6.224 0 8.921-.587 16.229-3.533 4.82-1.943 9.464-4.167 10.321-4.942.856-.775 3.495-1.845 5.863-2.377 2.369-.532 5.062-1.626 5.986-2.431.923-.805 3.33-1.994 5.348-2.642 2.019-.647 4.187-1.8 4.819-2.562.632-.761 2.413-1.662 3.957-2.001s4.3-1.718 6.125-3.064c1.825-1.347 3.728-2.448 4.229-2.448s2.248-1.125 3.882-2.5 3.983-2.5 5.22-2.5 3.306-1.125 4.598-2.5 3.058-2.503 3.924-2.506c.867-.004 2.701-.609 4.076-1.345s5.518-2.983 9.207-4.993c3.689-2.011 7.747-3.656 9.018-3.656s3.966-1.125 5.99-2.5c2.023-1.375 4.406-2.5 5.295-2.5s4.625-1.454 8.303-3.23c8.876-4.288 16.249-4.464 24.187-.577 3.678 1.802 7.895 2.898 12.729 3.309 6.72.572 7.873.358 16.359-3.037l9.13-3.653 7.997 1.611c4.398.886 8.949 2.279 10.113 3.094 1.164.816 2.854 1.483 3.755 1.483s3.287 1.119 5.303 2.487c2.016 1.369 4.892 2.785 6.39 3.149 2.736.664 8.727 3.398 17.371 7.928 2.556 1.34 5.299 2.436 6.095 2.436.797 0 2.289.929 3.317 2.065 1.804 1.994 15.121 8.935 17.141 8.935.544 0 1.768.86 2.719 1.91.95 1.051 2.905 2.206 4.344 2.567 1.438.361 3.767 1.464 5.176 2.451s4.187 2.091 6.174 2.453 4.419 1.549 5.405 2.639c.985 1.089 2.321 1.98 2.968 1.98.646 0 3.389 1.122 6.095 2.493 2.705 1.372 7.206 2.917 10.002 3.435s6.621 1.823 8.5 2.9c8.312 4.762 54.141 4.287 60.386-.625 1.444-1.136 3.907-2.346 5.474-2.691 1.567-.344 3.641-1.5 4.608-2.569.968-1.069 2.527-1.943 3.466-1.943.94 0 3.407-1.35 5.483-3s4.379-3 5.116-3c3.509 0 22.714-22.24 26.114-30.239.676-1.592 2.138-4.05 3.25-5.462 1.111-1.413 2.02-3.906 2.02-5.54 0-1.709 1.061-4.231 2.5-5.941 2.038-2.422 2.5-4.044 2.5-8.769 0-3.189.718-7.767 1.596-10.173.878-2.407 1.967-9.471 2.42-15.699.784-10.771.707-11.575-1.586-16.5-1.879-4.035-2.413-6.857-2.42-12.798l-.01-7.62 10.272-10.38c11.563-11.683 14.528-15.301 15.419-18.812.34-1.338 1.673-3.988 2.963-5.89 1.29-1.901 2.346-4.464 2.346-5.696 0-1.231 1.158-4.768 2.572-7.858 2.541-5.55 2.569-5.876 2.25-26.371-.293-18.899-.512-21.109-2.452-24.752-1.172-2.2-2.458-6.025-2.858-8.5-.572-3.541-7.591-20.01-11.359-26.652-2.986-5.266-11.207-16.167-16.851-22.348-13.789-15.098-14.464-16.725-9.802-23.595 1.375-2.026 2.5-4.434 2.5-5.35 0-.917 1.125-3.191 2.5-5.055s2.514-4.764 2.531-6.444c.017-1.681 1.14-4.856 2.495-7.056 2.326-3.777 2.464-4.825 2.469-18.796.005-13.868-.152-15.09-2.495-19.492-1.375-2.583-2.5-5.882-2.5-7.332 0-1.449-.68-3.2-1.512-3.89-.831-.69-2.381-3.22-3.443-5.622-1.063-2.402-2.324-4.368-2.802-4.368s-4.215-4.088-8.306-9.084c-7.061-8.626-17.891-18.418-24.437-22.097-1.65-.928-7.725-4.042-13.5-6.921s-10.841-5.721-11.259-6.316c-.417-.595-.702-3.332-.633-6.082.289-11.497-1.327-22.885-3.756-26.482-1.294-1.915-2.352-4.278-2.352-5.25 0-.971-3.487-5.436-7.75-9.92s-8.706-9.174-9.875-10.421-5.279-3.207-9.134-4.355-7.527-2.712-8.161-3.475c-.633-.763-2.771-1.692-4.751-2.063-1.98-.372-5.22-1.544-7.2-2.605-2.179-1.168-5.578-1.93-8.614-1.933-3.39-.002-6.149-.704-8.515-2.166-2.646-1.635-5.94-2.349-13.5-2.924-5.5-.418-12.025-1.548-14.5-2.51-3.552-1.38-9.24-1.9-27-2.468-15.73-.503-25.509-1.31-32.5-2.683-8.46-1.661-14.159-1.96-37-1.939-14.85.014-34.425.337-43.5.718m-4.557 39.168c-2.168.381-8.272.719-13.563.75-5.292.032-14.742.915-21 1.961-6.259 1.047-16.847 2.166-23.528 2.487-6.682.32-13.384 1.052-14.895 1.626-1.51.574-6.168 1.512-10.351 2.083s-9.941 2.133-12.794 3.47c-2.854 1.337-6.004 2.433-7 2.435-.997.002-4.512 1.35-7.812 2.996s-6.469 2.994-7.042 2.996c-1.996.007-9.49 8.63-10.471 12.048-1.532 5.342-1.132 12.039.998 16.733 4.633 10.208 18.14 21.652 34.543 29.268 4.935 2.291 10.608 5.018 12.608 6.06s4.929 1.895 6.508 1.895c1.58 0 4.893 1.065 7.364 2.368 2.471 1.302 6.651 2.683 9.291 3.068 2.639.386 7.139 1.791 10 3.123 3.698 1.722 6.962 2.424 11.294 2.431 3.547.006 8.563.87 12 2.068 3.249 1.132 9.753 2.318 14.455 2.635l8.547.577 2.453-2.996c1.348-1.648 3.628-5.001 5.066-7.451 2.899-4.94 10.858-10.823 14.643-10.823 1.328 0 5.287-.765 8.797-1.701 6.007-1.6 6.591-1.6 9.948 0 1.961.936 5.234 1.701 7.273 1.701 5.176 0 12.724 5.509 17.725 12.936 2.2 3.268 5.034 6.419 6.297 7.003 3.187 1.472 10.424 1.297 18.682-.452 3.839-.813 10.589-1.743 15-2.067 10.202-.749 26.412-4.773 33.521-8.323 11.451-5.718 18.734-9.097 19.603-9.097.495 0 4.274-1.772 8.398-3.937 13.001-6.826 27-19.873 33.734-31.441.68-1.167 1.242-5.176 1.25-8.908.013-5.772-.321-7.092-2.235-8.841-4.815-4.398-9.986-7.766-12.909-8.408-1.681-.369-4.645-1.75-6.588-3.068s-4.837-2.397-6.432-2.397c-1.596 0-4.641-.888-6.769-1.973-2.403-1.227-7.593-2.347-13.71-2.959-5.413-.542-12.092-1.72-14.842-2.618-3.317-1.083-11.059-1.906-23-2.445-16.704-.754-36.46-3.195-38.938-4.812-1.385-.904-70.973-.904-76.119-.001m-160.943 86.748c-12.054 2.956-27.3 15.235-37.537 30.231-3.936 5.767-3.963 5.872-3.963 15.363 0 8.276.335 10.187 2.5 14.254 1.375 2.583 2.5 5.329 2.5 6.103 0 2.115 20.699 22.779 27 26.954 3.025 2.005 7.045 4.215 8.934 4.911 1.888.697 4.195 1.956 5.126 2.798.93.842 3.435 1.796 5.566 2.118 2.131.323 5.365 1.483 7.186 2.578 2.038 1.224 5.887 2.188 10 2.505 3.781.291 8.427 1.395 10.688 2.539 5.555 2.812 34.243 4.015 75.499 3.168 35.276-.726 40.103-1.239 45.867-4.878 3.226-2.036 4.157-3.304 4.639-6.316.331-2.072 1.478-6.59 2.548-10.039 1.532-4.933 1.947-9.212 1.947-20.05 0-9.384-.383-14.162-1.2-14.979-.796-.796-5.116-1.2-12.824-1.2-9.504 0-13.146-.456-19.976-2.5-5.693-1.704-10.764-2.503-15.926-2.509-6.011-.007-8.606-.517-12.574-2.469-2.941-1.447-6.853-2.485-9.5-2.522-2.948-.041-5.88-.912-8.5-2.526-2.2-1.355-5.367-2.466-7.039-2.469-1.671-.003-4.821-.921-7-2.04-2.178-1.12-5.986-2.538-8.461-3.152s-5.625-1.89-7-2.834-3.611-2.062-4.969-2.485c-4.731-1.471-21.361-10.63-25.93-14.279-2.53-2.022-8.104-6.722-12.385-10.445-7.89-6.861-9.107-7.328-15.216-5.83m382.373.713c-2.033 2.449-20.395 17.367-25.814 20.972-2.584 1.719-5.792 3.459-7.129 3.865-1.336.407-3.33 1.54-4.43 2.517s-3.575 2.107-5.5 2.509c-1.925.403-4.733 1.604-6.24 2.67-1.508 1.065-4.433 2.209-6.5 2.542-2.068.333-5.74 1.656-8.159 2.939s-6.019 2.335-8 2.338c-2.07.003-5.301 1.053-7.601 2.469-2.549 1.57-5.528 2.475-8.213 2.495-2.317.017-6.592.972-9.5 2.123s-9.437 2.488-14.509 2.972c-5.073.483-12.798 1.792-17.167 2.908-5.248 1.34-11.178 2.028-17.471 2.028-12.658 0-12.64-.025-12.64 17.65 0 15.489 1.465 27.643 3.84 31.85.956 1.694 3.759 4.028 6.439 5.362 4.458 2.219 6.09 2.388 26.983 2.804 42.681.849 59.398.765 82.238-.413 26.411-1.362 37.382-3.535 46.995-9.307 5.517-3.313 32.505-27.301 32.505-28.892 0-.426 1.128-2.438 2.508-4.47 6.485-9.557 8.718-15.359 8.992-23.366.319-9.325-1.115-12.834-10.411-25.486-4.057-5.522-15.651-13.969-26.164-19.062-8.214-3.98-12.901-4.608-15.052-2.017m-425.941 131.973c-3.398 3.231-8.486 9.154-11.306 13.163-2.819 4.01-6.736 9.57-8.705 12.356-3.161 4.475-4.581 7.874-8.04 19.254-.484 1.595-.868 9.47-.853 17.5.027 13.88.169 14.916 2.889 20.99 4.366 9.748 19.678 25.111 25.029 25.111 1.516 0 4.872 1.125 7.458 2.5s5.339 2.5 6.118 2.5 4.918 1.154 9.197 2.564c7.301 2.406 8.552 2.522 20.281 1.877 6.985-.383 15.147-1.469 18.5-2.46 3.3-.975 9.223-2.015 13.161-2.311 4.319-.325 8.768-1.359 11.21-2.604 2.227-1.136 5.755-2.081 7.839-2.099 2.085-.018 6.265-.957 9.29-2.086 3.025-1.13 8.425-2.637 12-3.35 3.575-.712 8.525-2.238 11-3.391s5.918-2.106 7.651-2.118 5.558-1.143 8.5-2.512c2.942-1.37 6.825-2.495 8.629-2.5 1.804-.006 5.953-1.135 9.22-2.51 3.277-1.379 7.899-2.5 10.31-2.5 2.403 0 7.93-.938 12.28-2.085 4.351-1.147 10.58-2.663 13.844-3.369 8.399-1.816 11.515-6.537 11.582-17.546.016-2.475.921-6.467 2.012-8.872 1.09-2.404 2.238-6.904 2.55-10 .311-3.095 1.504-9.346 2.649-13.891 2.654-10.53 1.904-12.795-4.56-13.764-2.961-.444-5.225-.224-6.803.663-2.477 1.392-13.574 2.054-61.32 3.658-20.206.679-27.296.584-32-.426-3.324-.714-11.444-1.328-18.044-1.364-10.94-.061-12.353-.284-16-2.53-3.19-1.965-5.34-2.465-10.615-2.469-5.299-.004-7.172-.443-9.416-2.208-1.776-1.397-4.964-2.458-8.714-2.9-3.7-.437-6.726-1.435-8.084-2.666-1.194-1.083-3.485-2.28-5.092-2.662-1.607-.381-4.03-1.565-5.385-2.631s-3.465-1.938-4.689-1.938-3.967-1.182-6.096-2.626c-2.128-1.444-5.541-2.85-7.583-3.124-3.433-.461-4.181-.054-9.894 5.376m465.068-4.889c-.825.318-2.075 1.39-2.779 2.381-.703.991-2.915 2.109-4.915 2.484-2 .376-5.2 1.744-7.111 3.04-1.911 1.297-4.199 2.36-5.085 2.363-.885.003-3.41 1.114-5.61 2.469-2.868 1.766-5.464 2.472-9.173 2.495-4.031.024-5.83.583-8.145 2.531-2.326 1.958-4.087 2.5-8.116 2.5-3.235 0-6.657.771-9.214 2.076-3.393 1.731-7.33 2.27-23.71 3.25-24.922 1.49-66.996 1.318-78.142-.319-18.273-2.683-20.734-3.006-27.669-3.622-6.785-.603-7.308-.499-9.75 1.943-3.085 3.085-3.408 8.42-1.092 18.008.819 3.39 2.15 10.468 2.958 15.729s2.5 12.671 3.761 16.467c3.018 9.089 7.501 12.411 18.158 13.456 3.924.385 8.656 1.487 10.516 2.45 1.861.963 6.312 2.165 9.893 2.672 3.58.507 8.527 1.815 10.994 2.906s6.341 1.998 8.608 2.015c2.3.018 6.334 1.119 9.123 2.491 2.826 1.39 6.783 2.464 9.101 2.469 2.439.005 6.007 1.022 8.803 2.509 2.586 1.375 6.042 2.5 7.679 2.5 1.638 0 5.715 1.152 9.061 2.561 3.346 1.408 8.395 2.811 11.22 3.117s6.632 1.408 8.46 2.449c1.829 1.041 7.679 2.587 13 3.436 5.322.848 13.726 2.19 18.676 2.982 11.332 1.814 21.632 1.848 28.032.092 2.732-.749 7.218-1.919 9.968-2.599s7.25-2.143 10-3.251 6.8-2.665 9-3.461c6.444-2.329 18.852-15.319 23.034-24.114l3.466-7.288-.031-14.712c-.03-13.858-.174-14.944-2.495-18.712-1.355-2.2-2.466-4.925-2.469-6.056-.003-1.13-1.106-3.548-2.453-5.373-1.346-1.825-2.725-4.581-3.064-6.125s-1.298-3.373-2.13-4.064c-.833-.691-2.645-3.488-4.027-6.215-2.773-5.473-13.3-17.032-17.531-19.251-2.764-1.449-6.132-1.709-8.8-.679m-268.669 126.264c-6.003.525-9.318 1.384-12.5 3.239-2.382 1.388-6.806 2.852-9.831 3.254-3.025.401-8.074 1.804-11.22 3.118-3.337 1.393-7.722 2.388-10.527 2.388-2.645 0-5.696.611-6.78 1.357-1.085.747-4.448 1.934-7.473 2.637-3.025.704-7.623 2.343-10.217 3.643-2.645 1.325-6.505 2.363-8.79 2.363-2.24 0-5.912.938-8.16 2.085-2.249 1.147-6.618 2.335-9.711 2.64-3.092.305-7.292 1.392-9.333 2.415-2.041 1.024-8.566 2.522-14.5 3.329s-12.998 2.157-15.698 3c-3.459 1.079-9.191 1.531-19.412 1.531-13.616 0-14.761-.151-18.714-2.468-8.409-4.927-17.198-3.898-20.891 2.446-2.283 3.922-2.689 14.8-.783 21.022 3.026 9.885 6.419 18.451 8.207 20.724 1.101 1.4 2.002 3.572 2.002 4.825 0 1.59 2.918 5.018 9.636 11.324 5.3 4.974 11.263 10.155 13.25 11.513 5.095 3.482 19.377 5.817 28.114 4.597 13.619-1.901 17.622-2.808 21.461-4.863 2.179-1.166 4.731-2.12 5.672-2.12s6.808-2.506 13.039-5.57c6.23-3.063 15.603-7.607 20.828-10.096 14.26-6.793 15.717-7.538 25.976-13.279 5.211-2.917 11.203-5.913 13.315-6.658 2.111-.745 4.996-2.264 6.409-3.376 1.413-1.111 3.58-2.021 4.814-2.021 4.267 0 30.05-12.317 31.516-15.055.533-.998.97-4.976.97-8.842 0-4.828.69-8.84 2.204-12.815 1.736-4.559 2.168-7.645 2.037-14.535-.189-9.838-1.259-12.821-4.526-12.609-1.218.079-5.891.465-10.384.857m72.681.485c-2.124 2.559-2.514 16.282-.688 24.195.866 3.751 2.072 9.929 2.682 13.729 1.248 7.783 3.113 12.048 5.926 13.554 3.322 1.777 15.734 6.036 17.595 6.036.981 0 3.259 1.125 5.062 2.5s4.24 2.5 5.416 2.5 4.019 1.075 6.317 2.388c2.298 1.314 5.804 2.673 7.791 3.02s4.382 1.482 5.323 2.522c.941 1.039 2.88 2.183 4.309 2.542 1.428.359 3.691 1.512 5.028 2.564 1.336 1.051 3.93 2.193 5.763 2.537s4.107 1.48 5.054 2.526c.946 1.046 2.487 1.901 3.425 1.901s3.364 1.125 5.39 2.5 4.323 2.5 5.105 2.5c.781 0 2.958 1.35 4.837 3s4.258 3.014 5.285 3.031 3.668 1.14 5.868 2.495 4.7 2.466 5.556 2.469c.855.003 3.08 1.13 4.944 2.505s4.514 2.5 5.891 2.5c1.376 0 4.101 1.108 6.055 2.462 5.337 3.698 19.987 5.3 32.872 3.593 10.511-1.392 15.542-3.592 22.764-9.958 2.245-1.978 4.945-4.337 6-5.241 4.167-3.57 8.192-8.48 8.901-10.856.41-1.375 1.564-3.855 2.565-5.511s2.133-5.481 2.515-8.5 1.312-7.006 2.066-8.861c2.833-6.968 1.16-24.261-2.645-27.342-2.979-2.412-5.943-2.249-12.984.714-5.403 2.274-7.235 2.5-20.271 2.5-10.811 0-16.528-.5-23.28-2.034-4.922-1.119-11.672-2.455-15-2.968-3.327-.513-7.627-1.592-9.555-2.398-1.928-.805-6.405-1.881-9.95-2.39-9.072-1.303-23.453-5.057-29.944-7.817-3.025-1.286-8.2-2.634-11.5-2.995s-7.67-1.498-9.71-2.527c-2.041-1.029-4.966-1.875-6.5-1.881-1.535-.005-5.265-1.168-8.29-2.585s-7.975-2.796-11-3.065-7.075-1.321-9-2.338c-1.925-1.016-7.325-2.305-12-2.865-4.675-.559-9.431-1.3-10.57-1.646-1.314-.4-2.562-.037-3.418.995" fill-rule="evenodd"/></svg>